<svg width="26" height="26" viewBox="0 0 26 26" fill="none" xmlns="http://www.w3.org/2000/svg">
<path fill-rule="evenodd" clip-rule="evenodd" d="M13 20.2721C17.0685 20.2721 20.3667 17.0162 20.3667 12.9998C20.3667 8.9835 17.0685 5.72762 13 5.72762C8.9315 5.72762 5.63333 8.9835 5.63333 12.9998C5.63333 17.0162 8.9315 20.2721 13 20.2721ZM13 25.8332C20.1797 25.8332 26 20.0875 26 12.9998C26 5.91218 20.1797 0.166504 13 0.166504C5.8203 0.166504 0 5.91218 0 12.9998C0 20.0875 5.8203 25.8332 13 25.8332Z" fill="#007A98"/>
<path d="M13.1487 13.2807C14.5026 11.9443 16.6975 11.9443 18.0513 13.2807L24.7924 19.9354C26.1462 21.2718 26.1462 23.4387 24.7924 24.7751C23.4386 26.1116 21.2436 26.1116 19.8898 24.7751L13.1487 18.1205C11.7949 16.784 11.7949 14.6172 13.1487 13.2807Z" fill="#EC4899"/>
<path d="M15.0416 19.9893L19.3229 24.2158C21.3764 23.0852 23.0873 21.4209 24.263 19.413L20.0167 15.2212C19.2709 17.5192 17.3987 19.3196 15.0416 19.9893Z" fill="#2C5E0C"/>
</svg>
