<svg width="14" height="14" viewBox="0 0 14 14" fill="none" xmlns="http://www.w3.org/2000/svg">
<g opacity="0.4">
<mask id="path-1-inside-1_5202_2705" fill="white">
<path d="M12.3842 4.44511H9.1525C8.93083 4.44511 8.75 4.26428 8.75 4.03678C8.75 3.81511 8.93083 3.63428 9.1525 3.63428H12.3842C12.6058 3.63428 12.7867 3.81511 12.7867 4.03678C12.7867 4.26428 12.6058 4.44511 12.3842 4.44511Z"/>
</mask>
<path d="M12.3842 4.44511H9.1525C8.93083 4.44511 8.75 4.26428 8.75 4.03678C8.75 3.81511 8.93083 3.63428 9.1525 3.63428H12.3842C12.6058 3.63428 12.7867 3.81511 12.7867 4.03678C12.7867 4.26428 12.6058 4.44511 12.3842 4.44511Z" fill="#0F172A"/>
<path d="M12.3842 3.44511H9.1525V5.44511H12.3842V3.44511ZM9.1525 3.44511C9.49248 3.44511 9.75 3.7214 9.75 4.03678H7.75C7.75 4.80716 8.36919 5.44511 9.1525 5.44511V3.44511ZM9.75 4.03678C9.75 4.36739 9.48312 4.63428 9.1525 4.63428V2.63428C8.37855 2.63428 7.75 3.26283 7.75 4.03678H9.75ZM9.1525 4.63428H12.3842V2.63428H9.1525V4.63428ZM12.3842 4.63428C12.0535 4.63428 11.7867 4.3674 11.7867 4.03678H13.7867C13.7867 3.26282 13.1581 2.63428 12.3842 2.63428V4.63428ZM11.7867 4.03678C11.7867 3.7214 12.0442 3.44511 12.3842 3.44511V5.44511C13.1675 5.44511 13.7867 4.80716 13.7867 4.03678H11.7867Z" fill="#0F172A" mask="url(#path-1-inside-1_5202_2705)"/>
</g>
<g opacity="0.4">
<mask id="path-3-inside-2_5202_2705" fill="white">
<path d="M3.76832 4.44514H1.61582C1.39415 4.44514 1.21332 4.2643 1.21332 4.04264C1.21332 3.82097 1.39415 3.64014 1.61582 3.64014H3.76832C3.98998 3.64014 4.17082 3.82097 4.17082 4.04264C4.17082 4.2643 3.98998 4.44514 3.76832 4.44514Z"/>
</mask>
<path d="M3.76832 4.44514H1.61582C1.39415 4.44514 1.21332 4.2643 1.21332 4.04264C1.21332 3.82097 1.39415 3.64014 1.61582 3.64014H3.76832C3.98998 3.64014 4.17082 3.82097 4.17082 4.04264C4.17082 4.2643 3.98998 4.44514 3.76832 4.44514Z" fill="#0F172A"/>
<path d="M3.76832 3.44514H1.61582V5.44514H3.76832V3.44514ZM1.61582 3.44514C1.94644 3.44514 2.21332 3.71202 2.21332 4.04264H0.213318C0.213318 4.81659 0.841867 5.44514 1.61582 5.44514V3.44514ZM2.21332 4.04264C2.21332 4.37326 1.94644 4.64014 1.61582 4.64014V2.64014C0.841867 2.64014 0.213318 3.26868 0.213318 4.04264H2.21332ZM1.61582 4.64014H3.76832V2.64014H1.61582V4.64014ZM3.76832 4.64014C3.4377 4.64014 3.17082 4.37326 3.17082 4.04264H5.17082C5.17082 3.26868 4.54227 2.64014 3.76832 2.64014V4.64014ZM3.17082 4.04264C3.17082 3.71202 3.4377 3.44514 3.76832 3.44514V5.44514C4.54227 5.44514 5.17082 4.81659 5.17082 4.04264H3.17082Z" fill="#0F172A" mask="url(#path-3-inside-2_5202_2705)"/>
</g>
<path d="M5.92082 6.32333C7.18371 6.32333 8.20749 5.29956 8.20749 4.03667C8.20749 2.77378 7.18371 1.75 5.92082 1.75C4.65793 1.75 3.63416 2.77378 3.63416 4.03667C3.63416 5.29956 4.65793 6.32333 5.92082 6.32333Z" fill="#0F172A"/>
<path opacity="0.4" d="M12.3842 10.366H10.2317C10.01 10.366 9.82916 10.1852 9.82916 9.96354C9.82916 9.74187 10.01 9.56104 10.2317 9.56104H12.3842C12.6058 9.56104 12.7867 9.74187 12.7867 9.96354C12.7867 10.1852 12.6058 10.366 12.3842 10.366Z" fill="#0F172A"/>
<path opacity="0.4" d="M4.84749 10.366H1.61582C1.39415 10.366 1.21332 10.1852 1.21332 9.96354C1.21332 9.74187 1.39415 9.56104 1.61582 9.56104H4.84749C5.06915 9.56104 5.24998 9.74187 5.24998 9.96354C5.24998 10.1852 5.06915 10.366 4.84749 10.366Z" fill="#0F172A"/>
<path d="M8.07915 12.2501C9.34204 12.2501 10.3658 11.2263 10.3658 9.96342C10.3658 8.70053 9.34204 7.67676 8.07915 7.67676C6.81626 7.67676 5.79248 8.70053 5.79248 9.96342C5.79248 11.2263 6.81626 12.2501 8.07915 12.2501Z" fill="#0F172A"/>
</svg>
