<svg width="21" height="20" viewBox="0 0 21 20" fill="none" xmlns="http://www.w3.org/2000/svg">
<path d="M1.79938 7.0918L1.79953 7.0918L1.79985 7.07945C1.84072 5.461 2.14703 4.55263 2.73165 4.01966C3.3265 3.47737 4.33219 3.2085 6.08334 3.2085H14.4167C16.237 3.2085 17.2506 3.49331 17.8371 4.07976C18.4235 4.66621 18.7083 5.67988 18.7083 7.50016V12.5002C18.7083 14.3204 18.4235 15.3341 17.8371 15.9206C17.2506 16.507 16.237 16.7918 14.4167 16.7918H6.08334C4.33219 16.7918 3.3265 16.523 2.73165 15.9807C2.14799 15.4486 1.84173 14.5423 1.80005 12.9289C1.80113 12.8746 1.82108 12.8445 1.82856 12.837C1.86214 12.8035 1.89699 12.7918 1.92501 12.7918C3.46185 12.7918 4.70834 11.5323 4.70834 10.0002C4.70834 8.46806 3.46185 7.2085 1.92501 7.2085C1.89729 7.2085 1.86437 7.19909 1.82856 7.16328C1.81391 7.14863 1.80754 7.13673 1.80434 7.12839C1.80109 7.1199 1.79855 7.10837 1.79938 7.0918ZM2.48031 12.9925L2.04663 13.0762L2.07612 13.5169C2.1486 14.5998 2.37367 15.449 3.09907 15.9641C3.44685 16.211 3.87025 16.3513 4.35404 16.4328C4.83723 16.5142 5.41158 16.5418 6.08334 16.5418H14.4167C15.1713 16.5418 15.8077 16.5067 16.3319 16.396C16.8617 16.2842 17.3127 16.088 17.6602 15.7398C18.0075 15.3917 18.2028 14.9405 18.3138 14.4113C18.4237 13.8877 18.4583 13.2525 18.4583 12.5002V7.50016C18.4583 6.74779 18.4237 6.11259 18.3138 5.58899C18.2028 5.05987 18.0075 4.60859 17.6602 4.26051C17.3127 3.91237 16.8617 3.71613 16.3319 3.6043C15.8077 3.49365 15.1713 3.4585 14.4167 3.4585H6.08334C5.41127 3.4585 4.83674 3.48666 4.35334 3.56882C3.86928 3.65109 3.44606 3.79229 3.09854 4.03974C2.37397 4.55565 2.14865 5.40399 2.07613 6.48331L2.04651 6.9241L2.48031 7.00778C3.89274 7.28023 4.95834 8.52091 4.95834 10.0002C4.95834 11.4794 3.89274 12.7201 2.48031 12.9925Z" fill="#0F172A" stroke="#0F172A"/>
<path d="M7.75 6.37516C7.71985 6.37516 7.68857 6.36288 7.66293 6.33723C7.63728 6.31159 7.625 6.28031 7.625 6.25016V3.3335C7.625 3.30335 7.63728 3.27207 7.66293 3.24642C7.68857 3.22078 7.71985 3.2085 7.75 3.2085C7.78015 3.2085 7.81143 3.22078 7.83707 3.24642C7.86272 3.27207 7.875 3.30335 7.875 3.3335V6.25016C7.875 6.28031 7.86272 6.31159 7.83707 6.33723C7.81143 6.36288 7.78015 6.37516 7.75 6.37516Z" fill="#0F172A" stroke="#0F172A"/>
<path d="M7.75 16.7917C7.71985 16.7917 7.68857 16.7794 7.66293 16.7537C7.63728 16.7281 7.625 16.6968 7.625 16.6667V13.75C7.625 13.7199 7.63728 13.6886 7.66293 13.6629C7.68857 13.6373 7.71985 13.625 7.75 13.625C7.78015 13.625 7.81143 13.6373 7.83707 13.6629C7.86272 13.6886 7.875 13.7199 7.875 13.75V16.6667C7.875 16.6968 7.86272 16.7281 7.83707 16.7537C7.81143 16.7794 7.78015 16.7917 7.75 16.7917Z" fill="#0F172A" stroke="#0F172A"/>
<path d="M10.6586 11.9979L10.6591 11.9954L10.8341 11.0037L10.8799 10.7437L10.6911 10.5592L9.96608 9.85086L9.96609 9.85085L9.96456 9.84938C9.84032 9.72902 9.79248 9.54938 9.84037 9.37803L10.5416 10.0655L10.9666 10.4822L10.9666 10.4822L10.9696 10.4851C11.0805 10.592 11.1311 10.7422 11.1065 10.9028L11.0072 11.4823L10.841 12.4518C10.8406 12.4516 10.8402 12.4513 10.8398 12.451C10.6966 12.3459 10.6269 12.1722 10.6586 11.9979ZM10.8229 9.21325L9.85073 9.34827C9.91506 9.18608 10.0561 9.07593 10.2176 9.05391L10.2176 9.05396L10.2242 9.05296L11.2242 8.90296L11.4822 8.86426L11.598 8.63046L12.0472 7.72377C12.0473 7.72355 12.0474 7.72333 12.0475 7.72311C12.1304 7.558 12.2897 7.4608 12.4606 7.45854L12.0333 8.34053L11.7766 8.87052C11.7084 9.00511 11.5744 9.10464 11.4175 9.13067L10.8229 9.21325ZM12.9333 8.34053L12.5069 7.46009C12.6749 7.4735 12.8133 7.57065 12.8817 7.71469L12.8816 7.71472L12.8853 7.72212L13.3353 8.63046L13.4511 8.86426L13.7092 8.90296L14.7092 9.05296L14.7092 9.05301L14.7158 9.05391C14.8778 9.076 15.0192 9.18679 15.0832 9.34983L14.129 9.21352L13.55 9.1308C13.3927 9.10498 13.2584 9.00534 13.19 8.87051L12.9333 8.34053ZM14.4084 10.0655L15.0971 9.39028C15.143 9.54714 15.0985 9.72368 14.9688 9.84938L14.9688 9.84937L14.9672 9.85086L14.2422 10.5592L14.0534 10.7437L14.0993 11.0037L14.2743 11.9954L14.2743 11.9954L14.2747 11.9979C14.3054 12.1666 14.2411 12.3348 14.1071 12.4407L13.9428 11.4823L13.8436 10.9039C13.8179 10.7295 13.873 10.5849 13.9736 10.4916L13.9737 10.4917L13.9834 10.4822L14.4084 10.0655ZM13.218 12.0097L14.0794 12.461C13.9369 12.5578 13.7531 12.5691 13.5964 12.4894L12.7068 12.0238L12.4761 11.9031L12.2448 12.023L11.3448 12.4896L11.3448 12.4896L11.3411 12.4916C11.2818 12.523 11.206 12.5418 11.1167 12.5418C11.0345 12.5418 10.944 12.5163 10.8619 12.4655L11.732 12.0097L12.257 11.7347L12.257 11.7347L12.2589 11.7337C12.3959 11.6612 12.5541 11.6612 12.6911 11.7337L12.693 11.7347L13.218 12.0097Z" fill="#0F172A" stroke="#0F172A"/>
</svg>
